<svg xmlns="http://www.w3.org/2000/svg" xmlns:xlink="http://www.w3.org/1999/xlink" width="600" height="400" viewBox="0 0 2400 1600">
<defs>
  <clipPath id="clip960">
    <rect x="0" y="0" width="2400" height="1600"></rect>
  </clipPath>
</defs>
<path clip-path="url(#clip960)" d="M0 1600 L2400 1600 L2400 0 L0 0  Z" fill="#ffffff" fill-rule="evenodd" fill-opacity="1"></path>
<defs>
  <clipPath id="clip961">
    <rect x="480" y="0" width="1681" height="1600"></rect>
  </clipPath>
</defs>
<path clip-path="url(#clip960)" d="M233.987 1423.18 L2352.76 1423.18 L2352.76 123.472 L233.987 123.472  Z" fill="#ffffff" fill-rule="evenodd" fill-opacity="1"></path>
<defs>
  <clipPath id="clip962">
    <rect x="233" y="123" width="2120" height="1301"></rect>
  </clipPath>
</defs>
<polyline clip-path="url(#clip962)" style="stroke:#000000; stroke-linecap:round; stroke-linejoin:round; stroke-width:2; stroke-opacity:0.1; fill:none" points="569.654,1423.18 569.654,123.472 "></polyline>
<polyline clip-path="url(#clip962)" style="stroke:#000000; stroke-linecap:round; stroke-linejoin:round; stroke-width:2; stroke-opacity:0.1; fill:none" points="914.281,1423.18 914.281,123.472 "></polyline>
<polyline clip-path="url(#clip962)" style="stroke:#000000; stroke-linecap:round; stroke-linejoin:round; stroke-width:2; stroke-opacity:0.1; fill:none" points="1258.91,1423.18 1258.91,123.472 "></polyline>
<polyline clip-path="url(#clip962)" style="stroke:#000000; stroke-linecap:round; stroke-linejoin:round; stroke-width:2; stroke-opacity:0.1; fill:none" points="1603.54,1423.18 1603.54,123.472 "></polyline>
<polyline clip-path="url(#clip962)" style="stroke:#000000; stroke-linecap:round; stroke-linejoin:round; stroke-width:2; stroke-opacity:0.1; fill:none" points="1948.16,1423.18 1948.16,123.472 "></polyline>
<polyline clip-path="url(#clip962)" style="stroke:#000000; stroke-linecap:round; stroke-linejoin:round; stroke-width:2; stroke-opacity:0.1; fill:none" points="2292.79,1423.18 2292.79,123.472 "></polyline>
<polyline clip-path="url(#clip962)" style="stroke:#000000; stroke-linecap:round; stroke-linejoin:round; stroke-width:2; stroke-opacity:0.1; fill:none" points="233.987,1165.18 2352.76,1165.18 "></polyline>
<polyline clip-path="url(#clip962)" style="stroke:#000000; stroke-linecap:round; stroke-linejoin:round; stroke-width:2; stroke-opacity:0.1; fill:none" points="233.987,845.336 2352.76,845.336 "></polyline>
<polyline clip-path="url(#clip962)" style="stroke:#000000; stroke-linecap:round; stroke-linejoin:round; stroke-width:2; stroke-opacity:0.1; fill:none" points="233.987,525.496 2352.76,525.496 "></polyline>
<polyline clip-path="url(#clip962)" style="stroke:#000000; stroke-linecap:round; stroke-linejoin:round; stroke-width:2; stroke-opacity:0.1; fill:none" points="233.987,205.656 2352.76,205.656 "></polyline>
<polyline clip-path="url(#clip960)" style="stroke:#000000; stroke-linecap:round; stroke-linejoin:round; stroke-width:4; stroke-opacity:1; fill:none" points="233.987,1423.18 2352.76,1423.18 "></polyline>
<polyline clip-path="url(#clip960)" style="stroke:#000000; stroke-linecap:round; stroke-linejoin:round; stroke-width:4; stroke-opacity:1; fill:none" points="569.654,1423.18 569.654,1404.28 "></polyline>
<polyline clip-path="url(#clip960)" style="stroke:#000000; stroke-linecap:round; stroke-linejoin:round; stroke-width:4; stroke-opacity:1; fill:none" points="914.281,1423.18 914.281,1404.28 "></polyline>
<polyline clip-path="url(#clip960)" style="stroke:#000000; stroke-linecap:round; stroke-linejoin:round; stroke-width:4; stroke-opacity:1; fill:none" points="1258.91,1423.18 1258.91,1404.28 "></polyline>
<polyline clip-path="url(#clip960)" style="stroke:#000000; stroke-linecap:round; stroke-linejoin:round; stroke-width:4; stroke-opacity:1; fill:none" points="1603.54,1423.18 1603.54,1404.28 "></polyline>
<polyline clip-path="url(#clip960)" style="stroke:#000000; stroke-linecap:round; stroke-linejoin:round; stroke-width:4; stroke-opacity:1; fill:none" points="1948.16,1423.18 1948.16,1404.28 "></polyline>
<polyline clip-path="url(#clip960)" style="stroke:#000000; stroke-linecap:round; stroke-linejoin:round; stroke-width:4; stroke-opacity:1; fill:none" points="2292.79,1423.18 2292.79,1404.28 "></polyline>
<path clip-path="url(#clip960)" d="M559.931 1451.02 L578.288 1451.02 L578.288 1454.96 L564.214 1454.96 L564.214 1463.43 Q565.232 1463.08 566.251 1462.92 Q567.269 1462.73 568.288 1462.73 Q574.075 1462.73 577.455 1465.9 Q580.834 1469.08 580.834 1474.49 Q580.834 1480.07 577.362 1483.17 Q573.89 1486.25 567.57 1486.25 Q565.394 1486.25 563.126 1485.88 Q560.881 1485.51 558.473 1484.77 L558.473 1480.07 Q560.556 1481.2 562.779 1481.76 Q565.001 1482.32 567.478 1482.32 Q571.482 1482.32 573.82 1480.21 Q576.158 1478.1 576.158 1474.49 Q576.158 1470.88 573.82 1468.77 Q571.482 1466.67 567.478 1466.67 Q565.603 1466.67 563.728 1467.08 Q561.876 1467.5 559.931 1468.38 L559.931 1451.02 Z" fill="#000000" fill-rule="nonzero" fill-opacity="1"></path><path clip-path="url(#clip960)" d="M888.969 1481.64 L896.608 1481.64 L896.608 1455.28 L888.297 1456.95 L888.297 1452.69 L896.561 1451.02 L901.237 1451.02 L901.237 1481.64 L908.876 1481.64 L908.876 1485.58 L888.969 1485.58 L888.969 1481.64 Z" fill="#000000" fill-rule="nonzero" fill-opacity="1"></path><path clip-path="url(#clip960)" d="M928.32 1454.1 Q924.709 1454.1 922.881 1457.66 Q921.075 1461.2 921.075 1468.33 Q921.075 1475.44 922.881 1479.01 Q924.709 1482.55 928.32 1482.55 Q931.955 1482.55 933.76 1479.01 Q935.589 1475.44 935.589 1468.33 Q935.589 1461.2 933.76 1457.66 Q931.955 1454.1 928.32 1454.1 M928.32 1450.39 Q934.131 1450.39 937.186 1455 Q940.265 1459.58 940.265 1468.33 Q940.265 1477.06 937.186 1481.67 Q934.131 1486.25 928.32 1486.25 Q922.51 1486.25 919.432 1481.67 Q916.376 1477.06 916.376 1468.33 Q916.376 1459.58 919.432 1455 Q922.51 1450.39 928.32 1450.39 Z" fill="#000000" fill-rule="nonzero" fill-opacity="1"></path><path clip-path="url(#clip960)" d="M1234.09 1481.64 L1241.73 1481.64 L1241.73 1455.28 L1233.42 1456.95 L1233.42 1452.69 L1241.69 1451.02 L1246.36 1451.02 L1246.36 1481.64 L1254 1481.64 L1254 1485.58 L1234.09 1485.58 L1234.09 1481.64 Z" fill="#000000" fill-rule="nonzero" fill-opacity="1"></path><path clip-path="url(#clip960)" d="M1263.49 1451.02 L1281.85 1451.02 L1281.85 1454.96 L1267.77 1454.96 L1267.77 1463.43 Q1268.79 1463.08 1269.81 1462.92 Q1270.83 1462.73 1271.85 1462.73 Q1277.64 1462.73 1281.01 1465.9 Q1284.39 1469.08 1284.39 1474.49 Q1284.39 1480.07 1280.92 1483.17 Q1277.45 1486.25 1271.13 1486.25 Q1268.95 1486.25 1266.69 1485.88 Q1264.44 1485.51 1262.03 1484.77 L1262.03 1480.07 Q1264.12 1481.2 1266.34 1481.76 Q1268.56 1482.32 1271.04 1482.32 Q1275.04 1482.32 1277.38 1480.21 Q1279.72 1478.1 1279.72 1474.49 Q1279.72 1470.88 1277.38 1468.77 Q1275.04 1466.67 1271.04 1466.67 Q1269.16 1466.67 1267.29 1467.08 Q1265.44 1467.5 1263.49 1468.38 L1263.49 1451.02 Z" fill="#000000" fill-rule="nonzero" fill-opacity="1"></path><path clip-path="url(#clip960)" d="M1582.31 1481.64 L1598.63 1481.64 L1598.63 1485.58 L1576.68 1485.58 L1576.68 1481.64 Q1579.35 1478.89 1583.93 1474.26 Q1588.54 1469.61 1589.72 1468.27 Q1591.96 1465.74 1592.84 1464.01 Q1593.74 1462.25 1593.74 1460.56 Q1593.74 1457.8 1591.8 1456.07 Q1589.88 1454.33 1586.78 1454.33 Q1584.58 1454.33 1582.12 1455.09 Q1579.69 1455.86 1576.92 1457.41 L1576.92 1452.69 Q1579.74 1451.55 1582.19 1450.97 Q1584.65 1450.39 1586.68 1450.39 Q1592.05 1450.39 1595.25 1453.08 Q1598.44 1455.77 1598.44 1460.26 Q1598.44 1462.39 1597.63 1464.31 Q1596.85 1466.2 1594.74 1468.8 Q1594.16 1469.47 1591.06 1472.69 Q1587.96 1475.88 1582.31 1481.64 Z" fill="#000000" fill-rule="nonzero" fill-opacity="1"></path><path clip-path="url(#clip960)" d="M1618.44 1454.1 Q1614.83 1454.1 1613 1457.66 Q1611.2 1461.2 1611.2 1468.33 Q1611.2 1475.44 1613 1479.01 Q1614.83 1482.55 1618.44 1482.55 Q1622.08 1482.55 1623.88 1479.01 Q1625.71 1475.44 1625.71 1468.33 Q1625.71 1461.2 1623.88 1457.66 Q1622.08 1454.1 1618.44 1454.1 M1618.44 1450.39 Q1624.25 1450.39 1627.31 1455 Q1630.39 1459.58 1630.39 1468.33 Q1630.39 1477.06 1627.31 1481.67 Q1624.25 1486.25 1618.44 1486.25 Q1612.63 1486.25 1609.55 1481.67 Q1606.5 1477.06 1606.5 1468.33 Q1606.5 1459.58 1609.55 1455 Q1612.63 1450.39 1618.44 1450.39 Z" fill="#000000" fill-rule="nonzero" fill-opacity="1"></path><path clip-path="url(#clip960)" d="M1927.43 1481.64 L1943.75 1481.64 L1943.75 1485.58 L1921.81 1485.58 L1921.81 1481.64 Q1924.47 1478.89 1929.05 1474.26 Q1933.66 1469.61 1934.84 1468.27 Q1937.09 1465.74 1937.97 1464.01 Q1938.87 1462.25 1938.87 1460.56 Q1938.87 1457.8 1936.92 1456.07 Q1935 1454.33 1931.9 1454.33 Q1929.7 1454.33 1927.25 1455.09 Q1924.82 1455.86 1922.04 1457.41 L1922.04 1452.69 Q1924.86 1451.55 1927.32 1450.97 Q1929.77 1450.39 1931.81 1450.39 Q1937.18 1450.39 1940.37 1453.08 Q1943.57 1455.77 1943.57 1460.26 Q1943.57 1462.39 1942.76 1464.31 Q1941.97 1466.2 1939.86 1468.8 Q1939.29 1469.47 1936.18 1472.69 Q1933.08 1475.88 1927.43 1481.64 Z" fill="#000000" fill-rule="nonzero" fill-opacity="1"></path><path clip-path="url(#clip960)" d="M1953.61 1451.02 L1971.97 1451.02 L1971.97 1454.96 L1957.9 1454.96 L1957.9 1463.43 Q1958.92 1463.08 1959.93 1462.92 Q1960.95 1462.73 1961.97 1462.73 Q1967.76 1462.73 1971.14 1465.9 Q1974.52 1469.08 1974.52 1474.49 Q1974.52 1480.07 1971.05 1483.17 Q1967.57 1486.25 1961.25 1486.25 Q1959.08 1486.25 1956.81 1485.88 Q1954.56 1485.51 1952.16 1484.77 L1952.16 1480.07 Q1954.24 1481.2 1956.46 1481.76 Q1958.68 1482.32 1961.16 1482.32 Q1965.17 1482.32 1967.5 1480.21 Q1969.84 1478.1 1969.84 1474.49 Q1969.84 1470.88 1967.5 1468.77 Q1965.17 1466.67 1961.16 1466.67 Q1959.29 1466.67 1957.41 1467.08 Q1955.56 1467.5 1953.61 1468.38 L1953.61 1451.02 Z" fill="#000000" fill-rule="nonzero" fill-opacity="1"></path><path clip-path="url(#clip960)" d="M2281.63 1466.95 Q2284.99 1467.66 2286.86 1469.93 Q2288.76 1472.2 2288.76 1475.53 Q2288.76 1480.65 2285.24 1483.45 Q2281.73 1486.25 2275.24 1486.25 Q2273.07 1486.25 2270.75 1485.81 Q2268.46 1485.39 2266.01 1484.54 L2266.01 1480.02 Q2267.95 1481.16 2270.27 1481.74 Q2272.58 1482.32 2275.11 1482.32 Q2279.5 1482.32 2281.8 1480.58 Q2284.11 1478.84 2284.11 1475.53 Q2284.11 1472.48 2281.96 1470.77 Q2279.83 1469.03 2276.01 1469.03 L2271.98 1469.03 L2271.98 1465.19 L2276.19 1465.19 Q2279.64 1465.19 2281.47 1463.82 Q2283.3 1462.43 2283.3 1459.84 Q2283.3 1457.18 2281.4 1455.77 Q2279.53 1454.33 2276.01 1454.33 Q2274.09 1454.33 2271.89 1454.75 Q2269.69 1455.16 2267.05 1456.04 L2267.05 1451.88 Q2269.71 1451.14 2272.03 1450.77 Q2274.36 1450.39 2276.43 1450.39 Q2281.75 1450.39 2284.85 1452.83 Q2287.95 1455.23 2287.95 1459.35 Q2287.95 1462.22 2286.31 1464.21 Q2284.67 1466.18 2281.63 1466.95 Z" fill="#000000" fill-rule="nonzero" fill-opacity="1"></path><path clip-path="url(#clip960)" d="M2307.63 1454.1 Q2304.02 1454.1 2302.19 1457.66 Q2300.38 1461.2 2300.38 1468.33 Q2300.38 1475.44 2302.19 1479.01 Q2304.02 1482.55 2307.63 1482.55 Q2311.26 1482.55 2313.07 1479.01 Q2314.9 1475.44 2314.9 1468.33 Q2314.9 1461.2 2313.07 1457.66 Q2311.26 1454.1 2307.63 1454.1 M2307.63 1450.39 Q2313.44 1450.39 2316.49 1455 Q2319.57 1459.58 2319.57 1468.33 Q2319.57 1477.06 2316.49 1481.67 Q2313.44 1486.25 2307.63 1486.25 Q2301.82 1486.25 2298.74 1481.67 Q2295.68 1477.06 2295.68 1468.33 Q2295.68 1459.58 2298.74 1455 Q2301.82 1450.39 2307.63 1450.39 Z" fill="#000000" fill-rule="nonzero" fill-opacity="1"></path><path clip-path="url(#clip960)" d="M1161.09 1520.52 L1167.52 1520.52 L1167.52 1568.04 L1161.09 1568.04 L1161.09 1520.52 Z" fill="#000000" fill-rule="nonzero" fill-opacity="1"></path><path clip-path="url(#clip960)" d="M1185.85 1522.27 L1185.85 1532.4 L1197.92 1532.4 L1197.92 1536.95 L1185.85 1536.95 L1185.85 1556.3 Q1185.85 1560.66 1187.03 1561.9 Q1188.24 1563.14 1191.9 1563.14 L1197.92 1563.14 L1197.92 1568.04 L1191.9 1568.04 Q1185.12 1568.04 1182.54 1565.53 Q1179.97 1562.98 1179.97 1556.3 L1179.97 1536.95 L1175.67 1536.95 L1175.67 1532.4 L1179.97 1532.4 L1179.97 1522.27 L1185.85 1522.27 Z" fill="#000000" fill-rule="nonzero" fill-opacity="1"></path><path clip-path="url(#clip960)" d="M1236.11 1548.76 L1236.11 1551.62 L1209.18 1551.62 Q1209.57 1557.67 1212.81 1560.85 Q1216.09 1564 1221.92 1564 Q1225.29 1564 1228.44 1563.17 Q1231.62 1562.35 1234.74 1560.69 L1234.74 1566.23 Q1231.59 1567.57 1228.28 1568.27 Q1224.97 1568.97 1221.57 1568.97 Q1213.04 1568.97 1208.04 1564 Q1203.07 1559.04 1203.07 1550.57 Q1203.07 1541.82 1207.78 1536.69 Q1212.53 1531.54 1220.55 1531.54 Q1227.74 1531.54 1231.91 1536.18 Q1236.11 1540.8 1236.11 1548.76 M1230.26 1547.04 Q1230.19 1542.23 1227.55 1539.37 Q1224.94 1536.5 1220.61 1536.5 Q1215.71 1536.5 1212.75 1539.27 Q1209.82 1542.04 1209.38 1547.07 L1230.26 1547.04 Z" fill="#000000" fill-rule="nonzero" fill-opacity="1"></path><path clip-path="url(#clip960)" d="M1266.38 1537.87 Q1265.39 1537.3 1264.22 1537.04 Q1263.07 1536.76 1261.67 1536.76 Q1256.7 1536.76 1254.03 1540 Q1251.39 1543.22 1251.39 1549.27 L1251.39 1568.04 L1245.5 1568.04 L1245.5 1532.4 L1251.39 1532.4 L1251.39 1537.93 Q1253.24 1534.69 1256.2 1533.13 Q1259.16 1531.54 1263.39 1531.54 Q1263.99 1531.54 1264.73 1531.63 Q1265.46 1531.7 1266.35 1531.85 L1266.38 1537.87 Z" fill="#000000" fill-rule="nonzero" fill-opacity="1"></path><path clip-path="url(#clip960)" d="M1288.72 1550.12 Q1281.63 1550.12 1278.89 1551.75 Q1276.15 1553.37 1276.15 1557.29 Q1276.15 1560.4 1278.19 1562.25 Q1280.26 1564.07 1283.79 1564.07 Q1288.66 1564.07 1291.59 1560.63 Q1294.55 1557.16 1294.55 1551.43 L1294.55 1550.12 L1288.72 1550.12 M1300.41 1547.71 L1300.41 1568.04 L1294.55 1568.04 L1294.55 1562.63 Q1292.54 1565.88 1289.55 1567.44 Q1286.56 1568.97 1282.23 1568.97 Q1276.76 1568.97 1273.51 1565.91 Q1270.3 1562.82 1270.3 1557.67 Q1270.3 1551.65 1274.31 1548.6 Q1278.35 1545.54 1286.34 1545.54 L1294.55 1545.54 L1294.55 1544.97 Q1294.55 1540.93 1291.88 1538.73 Q1289.23 1536.5 1284.43 1536.5 Q1281.37 1536.5 1278.48 1537.23 Q1275.58 1537.97 1272.91 1539.43 L1272.91 1534.02 Q1276.12 1532.78 1279.14 1532.17 Q1282.17 1531.54 1285.03 1531.54 Q1292.77 1531.54 1296.59 1535.55 Q1300.41 1539.56 1300.41 1547.71 Z" fill="#000000" fill-rule="nonzero" fill-opacity="1"></path><path clip-path="url(#clip960)" d="M1318.26 1522.27 L1318.26 1532.4 L1330.32 1532.4 L1330.32 1536.95 L1318.26 1536.95 L1318.26 1556.3 Q1318.26 1560.66 1319.44 1561.9 Q1320.65 1563.14 1324.31 1563.14 L1330.32 1563.14 L1330.32 1568.04 L1324.31 1568.04 Q1317.53 1568.04 1314.95 1565.53 Q1312.37 1562.98 1312.37 1556.3 L1312.37 1536.95 L1308.08 1536.95 L1308.08 1532.4 L1312.37 1532.4 L1312.37 1522.27 L1318.26 1522.27 Z" fill="#000000" fill-rule="nonzero" fill-opacity="1"></path><path clip-path="url(#clip960)" d="M1338.03 1532.4 L1343.88 1532.4 L1343.88 1568.04 L1338.03 1568.04 L1338.03 1532.4 M1338.03 1518.52 L1343.88 1518.52 L1343.88 1525.93 L1338.03 1525.93 L1338.03 1518.52 Z" fill="#000000" fill-rule="nonzero" fill-opacity="1"></path><path clip-path="url(#clip960)" d="M1369.95 1536.5 Q1365.24 1536.5 1362.5 1540.19 Q1359.77 1543.85 1359.77 1550.25 Q1359.77 1556.65 1362.47 1560.34 Q1365.21 1564 1369.95 1564 Q1374.63 1564 1377.37 1560.31 Q1380.1 1556.62 1380.1 1550.25 Q1380.1 1543.92 1377.37 1540.23 Q1374.63 1536.5 1369.95 1536.5 M1369.95 1531.54 Q1377.59 1531.54 1381.95 1536.5 Q1386.31 1541.47 1386.31 1550.25 Q1386.31 1559 1381.95 1564 Q1377.59 1568.97 1369.95 1568.97 Q1362.28 1568.97 1357.92 1564 Q1353.59 1559 1353.59 1550.25 Q1353.59 1541.47 1357.92 1536.5 Q1362.28 1531.54 1369.95 1531.54 Z" fill="#000000" fill-rule="nonzero" fill-opacity="1"></path><path clip-path="url(#clip960)" d="M1425.65 1546.53 L1425.65 1568.04 L1419.79 1568.04 L1419.79 1546.72 Q1419.79 1541.66 1417.82 1539.14 Q1415.85 1536.63 1411.9 1536.63 Q1407.16 1536.63 1404.42 1539.65 Q1401.68 1542.68 1401.68 1547.9 L1401.68 1568.04 L1395.8 1568.04 L1395.8 1532.4 L1401.68 1532.4 L1401.68 1537.93 Q1403.78 1534.72 1406.62 1533.13 Q1409.48 1531.54 1413.21 1531.54 Q1419.35 1531.54 1422.5 1535.36 Q1425.65 1539.14 1425.65 1546.53 Z" fill="#000000" fill-rule="nonzero" fill-opacity="1"></path><polyline clip-path="url(#clip960)" style="stroke:#000000; stroke-linecap:round; stroke-linejoin:round; stroke-width:4; stroke-opacity:1; fill:none" points="233.987,1423.18 233.987,123.472 "></polyline>
<polyline clip-path="url(#clip960)" style="stroke:#000000; stroke-linecap:round; stroke-linejoin:round; stroke-width:4; stroke-opacity:1; fill:none" points="233.987,1165.18 252.884,1165.18 "></polyline>
<polyline clip-path="url(#clip960)" style="stroke:#000000; stroke-linecap:round; stroke-linejoin:round; stroke-width:4; stroke-opacity:1; fill:none" points="233.987,845.336 252.884,845.336 "></polyline>
<polyline clip-path="url(#clip960)" style="stroke:#000000; stroke-linecap:round; stroke-linejoin:round; stroke-width:4; stroke-opacity:1; fill:none" points="233.987,525.496 252.884,525.496 "></polyline>
<polyline clip-path="url(#clip960)" style="stroke:#000000; stroke-linecap:round; stroke-linejoin:round; stroke-width:4; stroke-opacity:1; fill:none" points="233.987,205.656 252.884,205.656 "></polyline>
<path clip-path="url(#clip960)" d="M130.88 1163.82 Q134.237 1164.54 136.112 1166.81 Q138.01 1169.08 138.01 1172.41 Q138.01 1177.53 134.492 1180.33 Q130.973 1183.13 124.492 1183.13 Q122.316 1183.13 120.001 1182.69 Q117.709 1182.27 115.256 1181.41 L115.256 1176.9 Q117.2 1178.03 119.515 1178.61 Q121.83 1179.19 124.353 1179.19 Q128.751 1179.19 131.042 1177.46 Q133.357 1175.72 133.357 1172.41 Q133.357 1169.35 131.205 1167.64 Q129.075 1165.9 125.255 1165.9 L121.228 1165.9 L121.228 1162.06 L125.441 1162.06 Q128.89 1162.06 130.718 1160.7 Q132.547 1159.31 132.547 1156.72 Q132.547 1154.05 130.649 1152.64 Q128.774 1151.21 125.255 1151.21 Q123.334 1151.21 121.135 1151.62 Q118.936 1152.04 116.297 1152.92 L116.297 1148.75 Q118.959 1148.01 121.274 1147.64 Q123.612 1147.27 125.672 1147.27 Q130.996 1147.27 134.098 1149.7 Q137.2 1152.11 137.2 1156.23 Q137.2 1159.1 135.556 1161.09 Q133.913 1163.06 130.88 1163.82 Z" fill="#000000" fill-rule="nonzero" fill-opacity="1"></path><path clip-path="url(#clip960)" d="M147.686 1178.52 L155.325 1178.52 L155.325 1152.16 L147.015 1153.82 L147.015 1149.56 L155.278 1147.9 L159.954 1147.9 L159.954 1178.52 L167.593 1178.52 L167.593 1182.46 L147.686 1182.46 L147.686 1178.52 Z" fill="#000000" fill-rule="nonzero" fill-opacity="1"></path><path clip-path="url(#clip960)" d="M177.084 1147.9 L195.44 1147.9 L195.44 1151.83 L181.366 1151.83 L181.366 1160.3 Q182.385 1159.96 183.403 1159.79 Q184.422 1159.61 185.44 1159.61 Q191.227 1159.61 194.607 1162.78 Q197.987 1165.95 197.987 1171.37 Q197.987 1176.95 194.514 1180.05 Q191.042 1183.13 184.723 1183.13 Q182.547 1183.13 180.278 1182.76 Q178.033 1182.39 175.626 1181.65 L175.626 1176.95 Q177.709 1178.08 179.931 1178.64 Q182.153 1179.19 184.63 1179.19 Q188.635 1179.19 190.973 1177.09 Q193.311 1174.98 193.311 1171.37 Q193.311 1167.76 190.973 1165.65 Q188.635 1163.54 184.63 1163.54 Q182.755 1163.54 180.88 1163.96 Q179.028 1164.38 177.084 1165.26 L177.084 1147.9 Z" fill="#000000" fill-rule="nonzero" fill-opacity="1"></path><path clip-path="url(#clip960)" d="M129.885 843.982 Q133.242 844.699 135.117 846.968 Q137.015 849.236 137.015 852.57 Q137.015 857.685 133.496 860.486 Q129.978 863.287 123.496 863.287 Q121.32 863.287 119.006 862.847 Q116.714 862.431 114.26 861.574 L114.26 857.06 Q116.205 858.195 118.519 858.773 Q120.834 859.352 123.357 859.352 Q127.755 859.352 130.047 857.616 Q132.362 855.88 132.362 852.57 Q132.362 849.514 130.209 847.801 Q128.08 846.065 124.26 846.065 L120.232 846.065 L120.232 842.222 L124.445 842.222 Q127.894 842.222 129.723 840.857 Q131.552 839.468 131.552 836.875 Q131.552 834.213 129.654 832.801 Q127.779 831.366 124.26 831.366 Q122.339 831.366 120.14 831.783 Q117.941 832.199 115.302 833.079 L115.302 828.912 Q117.964 828.172 120.279 827.801 Q122.617 827.431 124.677 827.431 Q130.001 827.431 133.103 829.861 Q136.204 832.269 136.204 836.389 Q136.204 839.259 134.561 841.25 Q132.917 843.218 129.885 843.982 Z" fill="#000000" fill-rule="nonzero" fill-opacity="1"></path><path clip-path="url(#clip960)" d="M149.908 858.681 L166.227 858.681 L166.227 862.616 L144.283 862.616 L144.283 858.681 Q146.945 855.926 151.528 851.296 Q156.135 846.644 157.315 845.301 Q159.561 842.778 160.44 841.042 Q161.343 839.283 161.343 837.593 Q161.343 834.838 159.399 833.102 Q157.478 831.366 154.376 831.366 Q152.177 831.366 149.723 832.13 Q147.292 832.894 144.515 834.445 L144.515 829.722 Q147.339 828.588 149.792 828.01 Q152.246 827.431 154.283 827.431 Q159.653 827.431 162.848 830.116 Q166.042 832.801 166.042 837.292 Q166.042 839.421 165.232 841.343 Q164.445 843.241 162.339 845.833 Q161.76 846.505 158.658 849.722 Q155.556 852.917 149.908 858.681 Z" fill="#000000" fill-rule="nonzero" fill-opacity="1"></path><path clip-path="url(#clip960)" d="M186.042 831.134 Q182.431 831.134 180.602 834.699 Q178.797 838.241 178.797 845.371 Q178.797 852.477 180.602 856.042 Q182.431 859.583 186.042 859.583 Q189.676 859.583 191.482 856.042 Q193.311 852.477 193.311 845.371 Q193.311 838.241 191.482 834.699 Q189.676 831.134 186.042 831.134 M186.042 827.431 Q191.852 827.431 194.908 832.037 Q197.987 836.621 197.987 845.371 Q197.987 854.097 194.908 858.704 Q191.852 863.287 186.042 863.287 Q180.232 863.287 177.153 858.704 Q174.098 854.097 174.098 845.371 Q174.098 836.621 177.153 832.037 Q180.232 827.431 186.042 827.431 Z" fill="#000000" fill-rule="nonzero" fill-opacity="1"></path><path clip-path="url(#clip960)" d="M130.88 524.142 Q134.237 524.859 136.112 527.128 Q138.01 529.396 138.01 532.73 Q138.01 537.845 134.492 540.646 Q130.973 543.447 124.492 543.447 Q122.316 543.447 120.001 543.007 Q117.709 542.591 115.256 541.734 L115.256 537.22 Q117.2 538.355 119.515 538.933 Q121.83 539.512 124.353 539.512 Q128.751 539.512 131.042 537.776 Q133.357 536.04 133.357 532.73 Q133.357 529.674 131.205 527.961 Q129.075 526.225 125.255 526.225 L121.228 526.225 L121.228 522.382 L125.441 522.382 Q128.89 522.382 130.718 521.017 Q132.547 519.628 132.547 517.035 Q132.547 514.373 130.649 512.961 Q128.774 511.526 125.255 511.526 Q123.334 511.526 121.135 511.943 Q118.936 512.359 116.297 513.239 L116.297 509.072 Q118.959 508.332 121.274 507.961 Q123.612 507.591 125.672 507.591 Q130.996 507.591 134.098 510.021 Q137.2 512.429 137.2 516.549 Q137.2 519.419 135.556 521.41 Q133.913 523.378 130.88 524.142 Z" fill="#000000" fill-rule="nonzero" fill-opacity="1"></path><path clip-path="url(#clip960)" d="M150.903 538.841 L167.223 538.841 L167.223 542.776 L145.279 542.776 L145.279 538.841 Q147.941 536.086 152.524 531.456 Q157.13 526.804 158.311 525.461 Q160.556 522.938 161.436 521.202 Q162.339 519.443 162.339 517.753 Q162.339 514.998 160.394 513.262 Q158.473 511.526 155.371 511.526 Q153.172 511.526 150.718 512.29 Q148.288 513.054 145.51 514.605 L145.51 509.882 Q148.334 508.748 150.788 508.17 Q153.241 507.591 155.278 507.591 Q160.649 507.591 163.843 510.276 Q167.038 512.961 167.038 517.452 Q167.038 519.581 166.227 521.503 Q165.44 523.401 163.334 525.993 Q162.755 526.665 159.653 529.882 Q156.552 533.077 150.903 538.841 Z" fill="#000000" fill-rule="nonzero" fill-opacity="1"></path><path clip-path="url(#clip960)" d="M177.084 508.216 L195.44 508.216 L195.44 512.151 L181.366 512.151 L181.366 520.623 Q182.385 520.276 183.403 520.114 Q184.422 519.929 185.44 519.929 Q191.227 519.929 194.607 523.1 Q197.987 526.271 197.987 531.688 Q197.987 537.267 194.514 540.368 Q191.042 543.447 184.723 543.447 Q182.547 543.447 180.278 543.077 Q178.033 542.706 175.626 541.966 L175.626 537.267 Q177.709 538.401 179.931 538.956 Q182.153 539.512 184.63 539.512 Q188.635 539.512 190.973 537.405 Q193.311 535.299 193.311 531.688 Q193.311 528.077 190.973 525.97 Q188.635 523.864 184.63 523.864 Q182.755 523.864 180.88 524.281 Q179.028 524.697 177.084 525.577 L177.084 508.216 Z" fill="#000000" fill-rule="nonzero" fill-opacity="1"></path><path clip-path="url(#clip960)" d="M129.885 204.302 Q133.242 205.019 135.117 207.288 Q137.015 209.556 137.015 212.89 Q137.015 218.005 133.496 220.806 Q129.978 223.607 123.496 223.607 Q121.32 223.607 119.006 223.167 Q116.714 222.751 114.26 221.894 L114.26 217.38 Q116.205 218.515 118.519 219.093 Q120.834 219.672 123.357 219.672 Q127.755 219.672 130.047 217.936 Q132.362 216.2 132.362 212.89 Q132.362 209.834 130.209 208.121 Q128.08 206.385 124.26 206.385 L120.232 206.385 L120.232 202.542 L124.445 202.542 Q127.894 202.542 129.723 201.177 Q131.552 199.788 131.552 197.195 Q131.552 194.533 129.654 193.121 Q127.779 191.686 124.26 191.686 Q122.339 191.686 120.14 192.103 Q117.941 192.519 115.302 193.399 L115.302 189.232 Q117.964 188.492 120.279 188.121 Q122.617 187.751 124.677 187.751 Q130.001 187.751 133.103 190.181 Q136.204 192.589 136.204 196.709 Q136.204 199.579 134.561 201.57 Q132.917 203.538 129.885 204.302 Z" fill="#000000" fill-rule="nonzero" fill-opacity="1"></path><path clip-path="url(#clip960)" d="M160.047 204.302 Q163.403 205.019 165.278 207.288 Q167.177 209.556 167.177 212.89 Q167.177 218.005 163.658 220.806 Q160.14 223.607 153.658 223.607 Q151.482 223.607 149.167 223.167 Q146.876 222.751 144.422 221.894 L144.422 217.38 Q146.366 218.515 148.681 219.093 Q150.996 219.672 153.519 219.672 Q157.917 219.672 160.209 217.936 Q162.524 216.2 162.524 212.89 Q162.524 209.834 160.371 208.121 Q158.241 206.385 154.422 206.385 L150.394 206.385 L150.394 202.542 L154.607 202.542 Q158.056 202.542 159.885 201.177 Q161.714 199.788 161.714 197.195 Q161.714 194.533 159.815 193.121 Q157.94 191.686 154.422 191.686 Q152.501 191.686 150.302 192.103 Q148.103 192.519 145.464 193.399 L145.464 189.232 Q148.126 188.492 150.441 188.121 Q152.778 187.751 154.839 187.751 Q160.163 187.751 163.265 190.181 Q166.366 192.589 166.366 196.709 Q166.366 199.579 164.723 201.57 Q163.079 203.538 160.047 204.302 Z" fill="#000000" fill-rule="nonzero" fill-opacity="1"></path><path clip-path="url(#clip960)" d="M186.042 191.455 Q182.431 191.455 180.602 195.019 Q178.797 198.561 178.797 205.691 Q178.797 212.797 180.602 216.362 Q182.431 219.903 186.042 219.903 Q189.676 219.903 191.482 216.362 Q193.311 212.797 193.311 205.691 Q193.311 198.561 191.482 195.019 Q189.676 191.455 186.042 191.455 M186.042 187.751 Q191.852 187.751 194.908 192.357 Q197.987 196.941 197.987 205.691 Q197.987 214.417 194.908 219.024 Q191.852 223.607 186.042 223.607 Q180.232 223.607 177.153 219.024 Q174.098 214.417 174.098 205.691 Q174.098 196.941 177.153 192.357 Q180.232 187.751 186.042 187.751 Z" fill="#000000" fill-rule="nonzero" fill-opacity="1"></path><path clip-path="url(#clip960)" d="M16.4842 962.785 L16.4842 935.476 L21.895 935.476 L21.895 956.356 L35.8996 956.356 L35.8996 937.513 L41.3104 937.513 L41.3104 956.356 L64.0042 956.356 L64.0042 962.785 L16.4842 962.785 Z" fill="#000000" fill-rule="nonzero" fill-opacity="1"></path><path clip-path="url(#clip960)" d="M33.8307 909.632 Q33.2578 910.618 33.0032 911.796 Q32.7167 912.942 32.7167 914.342 Q32.7167 919.308 35.9632 921.981 Q39.1779 924.623 45.2253 924.623 L64.0042 924.623 L64.0042 930.511 L28.3562 930.511 L28.3562 924.623 L33.8944 924.623 Q30.6479 922.777 29.0883 919.817 Q27.4968 916.857 27.4968 912.624 Q27.4968 912.019 27.5923 911.287 Q27.656 910.555 27.8151 909.664 L33.8307 909.632 Z" fill="#000000" fill-rule="nonzero" fill-opacity="1"></path><path clip-path="url(#clip960)" d="M44.7161 874.429 L47.5806 874.429 L47.5806 901.356 Q53.6281 900.974 56.8109 897.728 Q59.9619 894.449 59.9619 888.625 Q59.9619 885.251 59.1344 882.1 Q58.3069 878.917 56.6518 875.798 L62.1899 875.798 Q63.5267 878.949 64.227 882.259 Q64.9272 885.569 64.9272 888.975 Q64.9272 897.505 59.9619 902.502 Q54.9967 907.467 46.5303 907.467 Q37.7774 907.467 32.6531 902.757 Q27.4968 898.014 27.4968 889.993 Q27.4968 882.8 32.1438 878.631 Q36.7589 874.429 44.7161 874.429 M42.9973 880.286 Q38.1912 880.349 35.3266 882.991 Q32.4621 885.601 32.4621 889.93 Q32.4621 894.831 35.2312 897.791 Q38.0002 900.72 43.0292 901.165 L42.9973 880.286 Z" fill="#000000" fill-rule="nonzero" fill-opacity="1"></path><path clip-path="url(#clip960)" d="M44.7161 834.325 L47.5806 834.325 L47.5806 861.252 Q53.6281 860.87 56.8109 857.624 Q59.9619 854.346 59.9619 848.521 Q59.9619 845.147 59.1344 841.996 Q58.3069 838.813 56.6518 835.694 L62.1899 835.694 Q63.5267 838.845 64.227 842.155 Q64.9272 845.465 64.9272 848.871 Q64.9272 857.401 59.9619 862.398 Q54.9967 867.363 46.5303 867.363 Q37.7774 867.363 32.6531 862.653 Q27.4968 857.91 27.4968 849.89 Q27.4968 842.696 32.1438 838.527 Q36.7589 834.325 44.7161 834.325 M42.9973 840.182 Q38.1912 840.245 35.3266 842.887 Q32.4621 845.497 32.4621 849.826 Q32.4621 854.727 35.2312 857.688 Q38.0002 860.616 43.0292 861.061 L42.9973 840.182 Z" fill="#000000" fill-rule="nonzero" fill-opacity="1"></path><path clip-path="url(#clip960)" d="M16.4842 803.738 L16.4842 773.692 L21.895 773.692 L21.895 797.309 L35.9632 797.309 L35.9632 774.679 L41.3741 774.679 L41.3741 797.309 L58.5933 797.309 L58.5933 773.119 L64.0042 773.119 L64.0042 803.738 L16.4842 803.738 Z" fill="#000000" fill-rule="nonzero" fill-opacity="1"></path><path clip-path="url(#clip960)" d="M42.4881 733.174 L64.0042 733.174 L64.0042 739.031 L42.679 739.031 Q37.6183 739.031 35.1038 741.004 Q32.5894 742.977 32.5894 746.924 Q32.5894 751.667 35.6131 754.404 Q38.6368 757.141 43.8567 757.141 L64.0042 757.141 L64.0042 763.029 L28.3562 763.029 L28.3562 757.141 L33.8944 757.141 Q30.6797 755.04 29.0883 752.208 Q27.4968 749.343 27.4968 745.619 Q27.4968 739.476 31.3163 736.325 Q35.1038 733.174 42.4881 733.174 Z" fill="#000000" fill-rule="nonzero" fill-opacity="1"></path><path clip-path="url(#clip960)" d="M44.7161 691.001 L47.5806 691.001 L47.5806 717.928 Q53.6281 717.546 56.8109 714.3 Q59.9619 711.022 59.9619 705.197 Q59.9619 701.823 59.1344 698.672 Q58.3069 695.489 56.6518 692.37 L62.1899 692.37 Q63.5267 695.521 64.227 698.831 Q64.9272 702.141 64.9272 705.547 Q64.9272 714.077 59.9619 719.074 Q54.9967 724.04 46.5303 724.04 Q37.7774 724.04 32.6531 719.329 Q27.4968 714.586 27.4968 706.566 Q27.4968 699.372 32.1438 695.203 Q36.7589 691.001 44.7161 691.001 M42.9973 696.858 Q38.1912 696.922 35.3266 699.563 Q32.4621 702.173 32.4621 706.502 Q32.4621 711.404 35.2312 714.364 Q38.0002 717.292 43.0292 717.737 L42.9973 696.858 Z" fill="#000000" fill-rule="nonzero" fill-opacity="1"></path><path clip-path="url(#clip960)" d="M33.8307 660.733 Q33.2578 661.719 33.0032 662.897 Q32.7167 664.043 32.7167 665.443 Q32.7167 670.408 35.9632 673.082 Q39.1779 675.724 45.2253 675.724 L64.0042 675.724 L64.0042 681.612 L28.3562 681.612 L28.3562 675.724 L33.8944 675.724 Q30.6479 673.878 29.0883 670.918 Q27.4968 667.958 27.4968 663.724 Q27.4968 663.12 27.5923 662.388 Q27.656 661.656 27.8151 660.764 L33.8307 660.733 Z" fill="#000000" fill-rule="nonzero" fill-opacity="1"></path><path clip-path="url(#clip960)" d="M45.7664 632.278 Q39.4007 632.278 35.8996 634.92 Q32.3984 637.53 32.3984 642.272 Q32.3984 646.983 35.8996 649.624 Q39.4007 652.234 45.7664 652.234 Q52.1003 652.234 55.6014 649.624 Q59.1026 646.983 59.1026 642.272 Q59.1026 637.53 55.6014 634.92 Q52.1003 632.278 45.7664 632.278 M59.58 626.421 Q68.683 626.421 73.1071 630.464 Q77.5631 634.506 77.5631 642.845 Q77.5631 645.932 77.0857 648.67 Q76.6401 651.407 75.6852 653.985 L69.9879 653.985 Q71.3884 651.407 72.0568 648.892 Q72.7252 646.378 72.7252 643.768 Q72.7252 638.007 69.7015 635.142 Q66.7096 632.278 60.6303 632.278 L57.7339 632.278 Q60.885 634.092 62.4446 636.925 Q64.0042 639.758 64.0042 643.704 Q64.0042 650.261 59.0071 654.271 Q54.01 658.282 45.7664 658.282 Q37.491 658.282 32.4939 654.271 Q27.4968 650.261 27.4968 643.704 Q27.4968 639.758 29.0564 636.925 Q30.616 634.092 33.7671 632.278 L28.3562 632.278 L28.3562 626.421 L59.58 626.421 Z" fill="#000000" fill-rule="nonzero" fill-opacity="1"></path><path clip-path="url(#clip960)" d="M67.3143 599.526 Q73.68 602.009 75.6216 604.364 Q77.5631 606.72 77.5631 610.666 L77.5631 615.345 L72.6615 615.345 L72.6615 611.908 Q72.6615 609.489 71.5157 608.152 Q70.3699 606.815 66.1048 605.192 L63.4312 604.141 L28.3562 618.56 L28.3562 612.353 L56.238 601.213 L28.3562 590.073 L28.3562 583.867 L67.3143 599.526 Z" fill="#000000" fill-rule="nonzero" fill-opacity="1"></path><path clip-path="url(#clip960)" d="M736.595 12.096 L771.351 12.096 L771.351 18.9825 L744.778 18.9825 L744.778 36.8065 L768.759 36.8065 L768.759 43.6931 L744.778 43.6931 L744.778 72.576 L736.595 72.576 L736.595 12.096 Z" fill="#000000" fill-rule="nonzero" fill-opacity="1"></path><path clip-path="url(#clip960)" d="M804.245 34.1734 Q802.989 33.4443 801.49 33.1202 Q800.032 32.7556 798.249 32.7556 Q791.93 32.7556 788.527 36.8875 Q785.165 40.9789 785.165 48.6757 L785.165 72.576 L777.671 72.576 L777.671 27.2059 L785.165 27.2059 L785.165 34.2544 Q787.515 30.1225 791.282 28.1376 Q795.049 26.1121 800.437 26.1121 Q801.207 26.1121 802.138 26.2337 Q803.07 26.3147 804.204 26.5172 L804.245 34.1734 Z" fill="#000000" fill-rule="nonzero" fill-opacity="1"></path><path clip-path="url(#clip960)" d="M849.048 48.0275 L849.048 51.6733 L814.777 51.6733 Q815.263 59.3701 819.395 63.421 Q823.568 67.4314 830.981 67.4314 Q835.275 67.4314 839.285 66.3781 Q843.336 65.3249 847.306 63.2184 L847.306 70.267 Q843.296 71.9684 839.083 72.8596 Q834.87 73.7508 830.535 73.7508 Q819.679 73.7508 813.319 67.4314 Q806.999 61.1119 806.999 50.3365 Q806.999 39.1965 812.995 32.6746 Q819.031 26.1121 829.239 26.1121 Q838.394 26.1121 843.701 32.0264 Q849.048 37.9003 849.048 48.0275 M841.594 45.84 Q841.513 39.7232 838.151 36.0774 Q834.829 32.4315 829.32 32.4315 Q823.082 32.4315 819.314 35.9558 Q815.587 39.4801 815.02 45.8805 L841.594 45.84 Z" fill="#000000" fill-rule="nonzero" fill-opacity="1"></path><path clip-path="url(#clip960)" d="M900.089 48.0275 L900.089 51.6733 L865.819 51.6733 Q866.305 59.3701 870.437 63.421 Q874.609 67.4314 882.022 67.4314 Q886.316 67.4314 890.327 66.3781 Q894.377 65.3249 898.347 63.2184 L898.347 70.267 Q894.337 71.9684 890.124 72.8596 Q885.911 73.7508 881.577 73.7508 Q870.72 73.7508 864.36 67.4314 Q858.041 61.1119 858.041 50.3365 Q858.041 39.1965 864.036 32.6746 Q870.072 26.1121 880.28 26.1121 Q889.435 26.1121 894.742 32.0264 Q900.089 37.9003 900.089 48.0275 M892.636 45.84 Q892.555 39.7232 889.192 36.0774 Q885.871 32.4315 880.361 32.4315 Q874.123 32.4315 870.356 35.9558 Q866.629 39.4801 866.062 45.8805 L892.636 45.84 Z" fill="#000000" fill-rule="nonzero" fill-opacity="1"></path><path clip-path="url(#clip960)" d="M939.018 12.096 L977.259 12.096 L977.259 18.9825 L947.201 18.9825 L947.201 36.8875 L976.003 36.8875 L976.003 43.7741 L947.201 43.7741 L947.201 65.6895 L977.988 65.6895 L977.988 72.576 L939.018 72.576 L939.018 12.096 Z" fill="#000000" fill-rule="nonzero" fill-opacity="1"></path><path clip-path="url(#clip960)" d="M1028.83 45.1919 L1028.83 72.576 L1021.37 72.576 L1021.37 45.4349 Q1021.37 38.994 1018.86 35.7938 Q1016.35 32.5936 1011.33 32.5936 Q1005.29 32.5936 1001.81 36.4419 Q998.324 40.2903 998.324 46.9338 L998.324 72.576 L990.829 72.576 L990.829 27.2059 L998.324 27.2059 L998.324 34.2544 Q1001 30.163 1004.6 28.1376 Q1008.25 26.1121 1012.99 26.1121 Q1020.81 26.1121 1024.82 30.9732 Q1028.83 35.7938 1028.83 45.1919 Z" fill="#000000" fill-rule="nonzero" fill-opacity="1"></path><path clip-path="url(#clip960)" d="M1082.5 48.0275 L1082.5 51.6733 L1048.23 51.6733 Q1048.72 59.3701 1052.85 63.421 Q1057.02 67.4314 1064.43 67.4314 Q1068.73 67.4314 1072.74 66.3781 Q1076.79 65.3249 1080.76 63.2184 L1080.76 70.267 Q1076.75 71.9684 1072.54 72.8596 Q1068.32 73.7508 1063.99 73.7508 Q1053.13 73.7508 1046.77 67.4314 Q1040.45 61.1119 1040.45 50.3365 Q1040.45 39.1965 1046.45 32.6746 Q1052.48 26.1121 1062.69 26.1121 Q1071.85 26.1121 1077.15 32.0264 Q1082.5 37.9003 1082.5 48.0275 M1075.05 45.84 Q1074.97 39.7232 1071.6 36.0774 Q1068.28 32.4315 1062.77 32.4315 Q1056.54 32.4315 1052.77 35.9558 Q1049.04 39.4801 1048.47 45.8805 L1075.05 45.84 Z" fill="#000000" fill-rule="nonzero" fill-opacity="1"></path><path clip-path="url(#clip960)" d="M1121.03 34.1734 Q1119.77 33.4443 1118.27 33.1202 Q1116.81 32.7556 1115.03 32.7556 Q1108.71 32.7556 1105.31 36.8875 Q1101.95 40.9789 1101.95 48.6757 L1101.95 72.576 L1094.45 72.576 L1094.45 27.2059 L1101.95 27.2059 L1101.95 34.2544 Q1104.3 30.1225 1108.06 28.1376 Q1111.83 26.1121 1117.22 26.1121 Q1117.99 26.1121 1118.92 26.2337 Q1119.85 26.3147 1120.99 26.5172 L1121.03 34.1734 Z" fill="#000000" fill-rule="nonzero" fill-opacity="1"></path><path clip-path="url(#clip960)" d="M1157.24 49.3643 Q1157.24 41.2625 1153.88 36.8065 Q1150.56 32.3505 1144.52 32.3505 Q1138.53 32.3505 1135.16 36.8065 Q1131.84 41.2625 1131.84 49.3643 Q1131.84 57.4256 1135.16 61.8816 Q1138.53 66.3376 1144.52 66.3376 Q1150.56 66.3376 1153.88 61.8816 Q1157.24 57.4256 1157.24 49.3643 M1164.69 66.9452 Q1164.69 78.5308 1159.55 84.1616 Q1154.4 89.8329 1143.79 89.8329 Q1139.86 89.8329 1136.38 89.2252 Q1132.89 88.6581 1129.61 87.4428 L1129.61 80.1917 Q1132.89 81.9741 1136.09 82.8248 Q1139.3 83.6755 1142.62 83.6755 Q1149.95 83.6755 1153.59 79.8271 Q1157.24 76.0193 1157.24 68.282 L1157.24 64.5957 Q1154.93 68.6061 1151.33 70.5911 Q1147.72 72.576 1142.7 72.576 Q1134.35 72.576 1129.25 66.2161 Q1124.14 59.8562 1124.14 49.3643 Q1124.14 38.832 1129.25 32.472 Q1134.35 26.1121 1142.7 26.1121 Q1147.72 26.1121 1151.33 28.0971 Q1154.93 30.082 1157.24 34.0924 L1157.24 27.2059 L1164.69 27.2059 L1164.69 66.9452 Z" fill="#000000" fill-rule="nonzero" fill-opacity="1"></path><path clip-path="url(#clip960)" d="M1198.92 76.7889 Q1195.76 84.8907 1192.77 87.3618 Q1189.77 89.8329 1184.75 89.8329 L1178.79 89.8329 L1178.79 83.5945 L1183.17 83.5945 Q1186.25 83.5945 1187.95 82.1361 Q1189.65 80.6778 1191.71 75.2496 L1193.05 71.8468 L1174.7 27.2059 L1182.6 27.2059 L1196.78 62.6918 L1210.96 27.2059 L1218.85 27.2059 L1198.92 76.7889 Z" fill="#000000" fill-rule="nonzero" fill-opacity="1"></path><path clip-path="url(#clip960)" d="M1273.1 32.4315 Q1267.1 32.4315 1263.62 37.1306 Q1260.13 41.7891 1260.13 49.9314 Q1260.13 58.0738 1263.58 62.7728 Q1267.06 67.4314 1273.1 67.4314 Q1279.05 67.4314 1282.54 62.7323 Q1286.02 58.0333 1286.02 49.9314 Q1286.02 41.8701 1282.54 37.1711 Q1279.05 32.4315 1273.1 32.4315 M1273.1 26.1121 Q1282.82 26.1121 1288.37 32.4315 Q1293.92 38.7509 1293.92 49.9314 Q1293.92 61.0714 1288.37 67.4314 Q1282.82 73.7508 1273.1 73.7508 Q1263.33 73.7508 1257.78 67.4314 Q1252.27 61.0714 1252.27 49.9314 Q1252.27 38.7509 1257.78 32.4315 Q1263.33 26.1121 1273.1 26.1121 Z" fill="#000000" fill-rule="nonzero" fill-opacity="1"></path><path clip-path="url(#clip960)" d="M1300.93 27.2059 L1308.83 27.2059 L1323 65.2844 L1337.18 27.2059 L1345.08 27.2059 L1328.07 72.576 L1317.94 72.576 L1300.93 27.2059 Z" fill="#000000" fill-rule="nonzero" fill-opacity="1"></path><path clip-path="url(#clip960)" d="M1394.18 48.0275 L1394.18 51.6733 L1359.91 51.6733 Q1360.39 59.3701 1364.53 63.421 Q1368.7 67.4314 1376.11 67.4314 Q1380.4 67.4314 1384.42 66.3781 Q1388.47 65.3249 1392.44 63.2184 L1392.44 70.267 Q1388.43 71.9684 1384.21 72.8596 Q1380 73.7508 1375.67 73.7508 Q1364.81 73.7508 1358.45 67.4314 Q1352.13 61.1119 1352.13 50.3365 Q1352.13 39.1965 1358.12 32.6746 Q1364.16 26.1121 1374.37 26.1121 Q1383.52 26.1121 1388.83 32.0264 Q1394.18 37.9003 1394.18 48.0275 M1386.72 45.84 Q1386.64 39.7232 1383.28 36.0774 Q1379.96 32.4315 1374.45 32.4315 Q1368.21 32.4315 1364.44 35.9558 Q1360.72 39.4801 1360.15 45.8805 L1386.72 45.84 Z" fill="#000000" fill-rule="nonzero" fill-opacity="1"></path><path clip-path="url(#clip960)" d="M1432.7 34.1734 Q1431.45 33.4443 1429.95 33.1202 Q1428.49 32.7556 1426.71 32.7556 Q1420.39 32.7556 1416.98 36.8875 Q1413.62 40.9789 1413.62 48.6757 L1413.62 72.576 L1406.13 72.576 L1406.13 27.2059 L1413.62 27.2059 L1413.62 34.2544 Q1415.97 30.1225 1419.74 28.1376 Q1423.51 26.1121 1428.89 26.1121 Q1429.66 26.1121 1430.6 26.2337 Q1431.53 26.3147 1432.66 26.5172 L1432.7 34.1734 Z" fill="#000000" fill-rule="nonzero" fill-opacity="1"></path><path clip-path="url(#clip960)" d="M1467.22 12.096 L1475.4 12.096 L1475.4 72.576 L1467.22 72.576 L1467.22 12.096 Z" fill="#000000" fill-rule="nonzero" fill-opacity="1"></path><path clip-path="url(#clip960)" d="M1498.73 14.324 L1498.73 27.2059 L1514.08 27.2059 L1514.08 32.9987 L1498.73 32.9987 L1498.73 57.6282 Q1498.73 63.1779 1500.23 64.7578 Q1501.77 66.3376 1506.43 66.3376 L1514.08 66.3376 L1514.08 72.576 L1506.43 72.576 Q1497.8 72.576 1494.52 69.3758 Q1491.24 66.1351 1491.24 57.6282 L1491.24 32.9987 L1485.77 32.9987 L1485.77 27.2059 L1491.24 27.2059 L1491.24 14.324 L1498.73 14.324 Z" fill="#000000" fill-rule="nonzero" fill-opacity="1"></path><path clip-path="url(#clip960)" d="M1562.7 48.0275 L1562.7 51.6733 L1528.42 51.6733 Q1528.91 59.3701 1533.04 63.421 Q1537.22 67.4314 1544.63 67.4314 Q1548.92 67.4314 1552.93 66.3781 Q1556.98 65.3249 1560.95 63.2184 L1560.95 70.267 Q1556.94 71.9684 1552.73 72.8596 Q1548.52 73.7508 1544.18 73.7508 Q1533.33 73.7508 1526.97 67.4314 Q1520.65 61.1119 1520.65 50.3365 Q1520.65 39.1965 1526.64 32.6746 Q1532.68 26.1121 1542.89 26.1121 Q1552.04 26.1121 1557.35 32.0264 Q1562.7 37.9003 1562.7 48.0275 M1555.24 45.84 Q1555.16 39.7232 1551.8 36.0774 Q1548.48 32.4315 1542.97 32.4315 Q1536.73 32.4315 1532.96 35.9558 Q1529.24 39.4801 1528.67 45.8805 L1555.24 45.84 Z" fill="#000000" fill-rule="nonzero" fill-opacity="1"></path><path clip-path="url(#clip960)" d="M1601.22 34.1734 Q1599.96 33.4443 1598.47 33.1202 Q1597.01 32.7556 1595.22 32.7556 Q1588.9 32.7556 1585.5 36.8875 Q1582.14 40.9789 1582.14 48.6757 L1582.14 72.576 L1574.65 72.576 L1574.65 27.2059 L1582.14 27.2059 L1582.14 34.2544 Q1584.49 30.1225 1588.26 28.1376 Q1592.02 26.1121 1597.41 26.1121 Q1598.18 26.1121 1599.11 26.2337 Q1600.04 26.3147 1601.18 26.5172 L1601.22 34.1734 Z" fill="#000000" fill-rule="nonzero" fill-opacity="1"></path><path clip-path="url(#clip960)" d="M1629.66 49.7694 Q1620.62 49.7694 1617.14 51.8354 Q1613.66 53.9013 1613.66 58.8839 Q1613.66 62.8538 1616.25 65.2034 Q1618.88 67.5124 1623.38 67.5124 Q1629.58 67.5124 1633.3 63.1374 Q1637.07 58.7219 1637.07 51.4303 L1637.07 49.7694 L1629.66 49.7694 M1644.52 46.6907 L1644.52 72.576 L1637.07 72.576 L1637.07 65.6895 Q1634.52 69.8214 1630.71 71.8063 Q1626.9 73.7508 1621.39 73.7508 Q1614.43 73.7508 1610.29 69.8619 Q1606.2 65.9325 1606.2 59.3701 Q1606.2 51.7138 1611.31 47.825 Q1616.45 43.9361 1626.62 43.9361 L1637.07 43.9361 L1637.07 43.2069 Q1637.07 38.0623 1633.67 35.2672 Q1630.31 32.4315 1624.19 32.4315 Q1620.3 32.4315 1616.61 33.3632 Q1612.93 34.295 1609.52 36.1584 L1609.52 29.2718 Q1613.62 27.692 1617.46 26.9223 Q1621.31 26.1121 1624.96 26.1121 Q1634.8 26.1121 1639.66 31.2163 Q1644.52 36.3204 1644.52 46.6907 Z" fill="#000000" fill-rule="nonzero" fill-opacity="1"></path><path clip-path="url(#clip960)" d="M1667.25 14.324 L1667.25 27.2059 L1682.6 27.2059 L1682.6 32.9987 L1667.25 32.9987 L1667.25 57.6282 Q1667.25 63.1779 1668.75 64.7578 Q1670.29 66.3376 1674.95 66.3376 L1682.6 66.3376 L1682.6 72.576 L1674.95 72.576 Q1666.32 72.576 1663.04 69.3758 Q1659.76 66.1351 1659.76 57.6282 L1659.76 32.9987 L1654.29 32.9987 L1654.29 27.2059 L1659.76 27.2059 L1659.76 14.324 L1667.25 14.324 Z" fill="#000000" fill-rule="nonzero" fill-opacity="1"></path><path clip-path="url(#clip960)" d="M1692.41 27.2059 L1699.86 27.2059 L1699.86 72.576 L1692.41 72.576 L1692.41 27.2059 M1692.41 9.54393 L1699.86 9.54393 L1699.86 18.9825 L1692.41 18.9825 L1692.41 9.54393 Z" fill="#000000" fill-rule="nonzero" fill-opacity="1"></path><path clip-path="url(#clip960)" d="M1733.04 32.4315 Q1727.04 32.4315 1723.56 37.1306 Q1720.07 41.7891 1720.07 49.9314 Q1720.07 58.0738 1723.52 62.7728 Q1727 67.4314 1733.04 67.4314 Q1738.99 67.4314 1742.47 62.7323 Q1745.96 58.0333 1745.96 49.9314 Q1745.96 41.8701 1742.47 37.1711 Q1738.99 32.4315 1733.04 32.4315 M1733.04 26.1121 Q1742.76 26.1121 1748.31 32.4315 Q1753.86 38.7509 1753.86 49.9314 Q1753.86 61.0714 1748.31 67.4314 Q1742.76 73.7508 1733.04 73.7508 Q1723.27 73.7508 1717.72 67.4314 Q1712.21 61.0714 1712.21 49.9314 Q1712.21 38.7509 1717.72 32.4315 Q1723.27 26.1121 1733.04 26.1121 Z" fill="#000000" fill-rule="nonzero" fill-opacity="1"></path><path clip-path="url(#clip960)" d="M1803.93 45.1919 L1803.93 72.576 L1796.47 72.576 L1796.47 45.4349 Q1796.47 38.994 1793.96 35.7938 Q1791.45 32.5936 1786.43 32.5936 Q1780.39 32.5936 1776.91 36.4419 Q1773.42 40.2903 1773.42 46.9338 L1773.42 72.576 L1765.93 72.576 L1765.93 27.2059 L1773.42 27.2059 L1773.42 34.2544 Q1776.1 30.163 1779.7 28.1376 Q1783.35 26.1121 1788.09 26.1121 Q1795.91 26.1121 1799.92 30.9732 Q1803.93 35.7938 1803.93 45.1919 Z" fill="#000000" fill-rule="nonzero" fill-opacity="1"></path><path clip-path="url(#clip960)" d="M1847.72 28.5427 L1847.72 35.5912 Q1844.56 33.9709 1841.15 33.1607 Q1837.75 32.3505 1834.11 32.3505 Q1828.56 32.3505 1825.76 34.0519 Q1823.01 35.7533 1823.01 39.156 Q1823.01 41.7486 1824.99 43.2475 Q1826.98 44.7058 1832.97 46.0426 L1835.52 46.6097 Q1843.46 48.3111 1846.79 51.4303 Q1850.15 54.509 1850.15 60.0587 Q1850.15 66.3781 1845.12 70.0644 Q1840.14 73.7508 1831.39 73.7508 Q1827.75 73.7508 1823.78 73.0216 Q1819.85 72.3329 1815.47 70.9151 L1815.47 63.2184 Q1819.6 65.3654 1823.61 66.4591 Q1827.62 67.5124 1831.55 67.5124 Q1836.82 67.5124 1839.66 65.73 Q1842.49 63.9071 1842.49 60.6258 Q1842.49 57.5877 1840.43 55.9673 Q1838.4 54.3469 1831.47 52.8481 L1828.88 52.2405 Q1821.95 50.7821 1818.87 47.7845 Q1815.8 44.7463 1815.8 39.4801 Q1815.8 33.0797 1820.33 29.5959 Q1824.87 26.1121 1833.21 26.1121 Q1837.35 26.1121 1840.99 26.7198 Q1844.64 27.3274 1847.72 28.5427 Z" fill="#000000" fill-rule="nonzero" fill-opacity="1"></path><polyline clip-path="url(#clip962)" style="stroke:#009af9; stroke-linecap:round; stroke-linejoin:round; stroke-width:4; stroke-opacity:1; fill:none" points="293.952,160.256 362.877,1196.66 431.803,1316.15 500.728,1356.58 569.654,1376.25 638.579,1384.34 707.505,1386.4 776.43,1385.45 845.356,1382.93 914.281,1379.39 983.207,1375.12 1052.13,1370.29 1121.06,1365.02 1189.98,1359.43 1258.91,1353.61 1327.83,1347.64 1396.76,1341.61 1465.68,1335.57 1534.61,1329.59 1603.54,1323.7 1672.46,1317.98 1741.39,1312.45 1810.31,1307.16 1879.24,1302.15 1948.16,1297.46 2017.09,1293.15 2086.01,1289.28 2154.94,1285.92 2223.87,1283.14 2292.79,1281.03 "></polyline>
</svg>